<svg width="28" height="28" viewBox="0 0 28 28" fill="none" xmlns="http://www.w3.org/2000/svg">
<path d="M23.4748 5.46133L17.4075 1.09769C15.373 -0.365897 12.6301 -0.365897 10.5943 1.09769L4.52575 5.46133C3.00311 6.55676 2.09961 8.31746 2.09961 10.1931V17.8069C2.09961 19.6825 3.00182 21.4432 4.52575 22.5387L10.5931 26.9023C12.6276 28.3659 15.3704 28.3659 17.4062 26.9023L23.4735 22.5387C24.9961 21.4432 25.8996 19.6825 25.8996 17.8069V10.1931C25.8996 8.31746 24.9974 6.55676 23.4748 5.46133ZM11.9567 2.99015C13.1782 2.11174 14.8236 2.11174 16.0438 2.99015L21.1585 6.66785C21.5282 6.93396 21.5282 7.48296 21.1585 7.74907L16.0438 11.4268C14.8223 12.3052 13.1769 12.3052 11.9567 11.4268L6.84203 7.74907C6.47236 7.48296 6.47236 6.93396 6.84203 6.66785L11.9567 2.99015ZM23.5678 17.8056C23.5678 18.9307 23.0262 19.9874 22.1124 20.6449L16.0451 25.0086C14.8236 25.887 13.1782 25.887 11.958 25.0086L5.8907 20.6449C4.97686 19.9874 4.43527 18.9307 4.43527 17.8056V10.1918C4.43527 10.188 4.43527 10.1841 4.43527 10.1802C4.43657 9.64153 5.05054 9.3315 5.48742 9.64541L10.5956 13.3192C12.6301 14.7828 15.373 14.7828 17.4087 13.3192L22.517 9.64541C22.9551 9.33021 23.5678 9.64024 23.5691 10.1802C23.5691 10.1841 23.5691 10.188 23.5691 10.1918V17.8056H23.5678Z" fill="#225AEA"/>
<path d="M17.374 15.6149C16.3593 15.8138 15.6859 16.616 15.1857 17.5383C15.0383 17.8096 15.0487 18.1506 15.2774 18.3328C15.4468 18.4671 15.6704 18.4594 15.8345 18.3186C16.4627 17.7838 17.1956 17.4815 17.67 17.3781C18.1444 17.2748 18.9238 17.2464 19.6799 17.4789C19.879 17.5396 20.0884 17.4518 20.2021 17.2567C20.3572 16.9906 20.2538 16.6728 20.0315 16.4791C19.2224 15.775 18.4042 15.412 17.374 15.6149Z" fill="#225AEA"/>
<path d="M10.6347 15.6145C11.6493 15.8134 12.3228 16.6156 12.823 17.538C12.9703 17.8092 12.96 18.1503 12.7312 18.3324C12.5619 18.4667 12.3383 18.459 12.1741 18.3182C11.5459 17.7834 10.813 17.4811 10.3387 17.3778C9.8643 17.2744 9.08489 17.246 8.32874 17.4785C8.12968 17.5392 7.92029 17.4514 7.80654 17.2563C7.65143 16.9902 7.75484 16.6725 7.97716 16.4787C8.7863 15.7747 9.6045 15.4117 10.6347 15.6145Z" fill="#225AEA"/>
</svg>
